<mxfile host="app.diagrams.net" agent="Mozilla/5.0 (Macintosh; Intel Mac OS X 10.15; rv:128.0) Gecko/20100101 Firefox/128.0" version="28.0.6">
  <diagram name="第 1 页" id="yhWGI-cBUaQlzxOfjR4H">
    <mxGraphModel dx="1113" dy="626" grid="1" gridSize="10" guides="1" tooltips="1" connect="1" arrows="1" fold="1" page="1" pageScale="1" pageWidth="1169" pageHeight="827" math="0" shadow="0">
      <root>
        <mxCell id="0" />
        <mxCell id="1" parent="0" />
        <mxCell id="rqWk5AFXyd3O3HDh0e_r-1" style="rounded=0;orthogonalLoop=1;jettySize=auto;html=1;entryX=0.5;entryY=0;entryDx=0;entryDy=0;" edge="1" parent="1" source="rqWk5AFXyd3O3HDh0e_r-2" target="rqWk5AFXyd3O3HDh0e_r-26">
          <mxGeometry relative="1" as="geometry">
            <mxPoint x="565" y="209" as="targetPoint" />
          </mxGeometry>
        </mxCell>
        <mxCell id="rqWk5AFXyd3O3HDh0e_r-2" value="……" style="rounded=1;whiteSpace=wrap;html=1;" vertex="1" parent="1">
          <mxGeometry x="540" y="130" width="50" height="30" as="geometry" />
        </mxCell>
        <mxCell id="rqWk5AFXyd3O3HDh0e_r-5" value="&lt;div&gt;[num_tokens&lt;span style=&quot;color: rgb(255, 51, 51);&quot;&gt; / N&lt;/span&gt;, hidden]&lt;/div&gt;" style="text;html=1;align=center;verticalAlign=middle;resizable=0;points=[];autosize=1;strokeColor=none;fillColor=none;" vertex="1" parent="1">
          <mxGeometry x="570" y="180" width="160" height="30" as="geometry" />
        </mxCell>
        <mxCell id="rqWk5AFXyd3O3HDh0e_r-13" value="" style="group" vertex="1" connectable="0" parent="1">
          <mxGeometry x="480" y="260" width="170" height="101" as="geometry" />
        </mxCell>
        <mxCell id="rqWk5AFXyd3O3HDh0e_r-14" value="&lt;div&gt;hidden&lt;/div&gt;" style="text;html=1;align=center;verticalAlign=middle;resizable=0;points=[];autosize=1;strokeColor=none;fillColor=none;" vertex="1" parent="rqWk5AFXyd3O3HDh0e_r-13">
          <mxGeometry y="34.25" width="60" height="30" as="geometry" />
        </mxCell>
        <mxCell id="rqWk5AFXyd3O3HDh0e_r-15" value="num_heads * head_dim" style="text;html=1;align=center;verticalAlign=middle;resizable=0;points=[];autosize=1;strokeColor=none;fillColor=none;" vertex="1" parent="rqWk5AFXyd3O3HDh0e_r-13">
          <mxGeometry x="15" width="150" height="30" as="geometry" />
        </mxCell>
        <mxCell id="rqWk5AFXyd3O3HDh0e_r-16" value="" style="rounded=0;whiteSpace=wrap;html=1;fillColor=#d5e8d4;strokeColor=#82b366;" vertex="1" parent="rqWk5AFXyd3O3HDh0e_r-13">
          <mxGeometry x="60" y="30" width="60" height="43" as="geometry" />
        </mxCell>
        <mxCell id="rqWk5AFXyd3O3HDh0e_r-18" value="k_proj" style="text;html=1;align=center;verticalAlign=middle;resizable=0;points=[];autosize=1;strokeColor=none;fillColor=none;" vertex="1" parent="rqWk5AFXyd3O3HDh0e_r-13">
          <mxGeometry x="60" y="71" width="60" height="30" as="geometry" />
        </mxCell>
        <mxCell id="rqWk5AFXyd3O3HDh0e_r-19" value="" style="group" vertex="1" connectable="0" parent="1">
          <mxGeometry x="670" y="260" width="170" height="101" as="geometry" />
        </mxCell>
        <mxCell id="rqWk5AFXyd3O3HDh0e_r-20" value="&lt;div&gt;hidden&lt;/div&gt;" style="text;html=1;align=center;verticalAlign=middle;resizable=0;points=[];autosize=1;strokeColor=none;fillColor=none;" vertex="1" parent="rqWk5AFXyd3O3HDh0e_r-19">
          <mxGeometry y="34.25" width="60" height="30" as="geometry" />
        </mxCell>
        <mxCell id="rqWk5AFXyd3O3HDh0e_r-21" value="num_heads * head_dim" style="text;html=1;align=center;verticalAlign=middle;resizable=0;points=[];autosize=1;strokeColor=none;fillColor=none;" vertex="1" parent="rqWk5AFXyd3O3HDh0e_r-19">
          <mxGeometry x="15" width="150" height="30" as="geometry" />
        </mxCell>
        <mxCell id="rqWk5AFXyd3O3HDh0e_r-22" value="" style="rounded=0;whiteSpace=wrap;html=1;fillColor=#ffe6cc;strokeColor=#d79b00;" vertex="1" parent="rqWk5AFXyd3O3HDh0e_r-19">
          <mxGeometry x="60" y="30" width="60" height="43" as="geometry" />
        </mxCell>
        <mxCell id="rqWk5AFXyd3O3HDh0e_r-24" value="v_proj" style="text;html=1;align=center;verticalAlign=middle;resizable=0;points=[];autosize=1;strokeColor=none;fillColor=none;" vertex="1" parent="rqWk5AFXyd3O3HDh0e_r-19">
          <mxGeometry x="60" y="71" width="60" height="30" as="geometry" />
        </mxCell>
        <mxCell id="rqWk5AFXyd3O3HDh0e_r-25" style="edgeStyle=none;rounded=0;orthogonalLoop=1;jettySize=auto;html=1;" edge="1" parent="1" source="rqWk5AFXyd3O3HDh0e_r-26" target="rqWk5AFXyd3O3HDh0e_r-9">
          <mxGeometry relative="1" as="geometry" />
        </mxCell>
        <mxCell id="rqWk5AFXyd3O3HDh0e_r-26" value="" style="ellipse;whiteSpace=wrap;html=1;aspect=fixed;" vertex="1" parent="1">
          <mxGeometry x="560" y="220" width="10" height="10" as="geometry" />
        </mxCell>
        <mxCell id="rqWk5AFXyd3O3HDh0e_r-27" style="edgeStyle=none;rounded=0;orthogonalLoop=1;jettySize=auto;html=1;entryX=0.466;entryY=0.158;entryDx=0;entryDy=0;entryPerimeter=0;" edge="1" parent="1" source="rqWk5AFXyd3O3HDh0e_r-26" target="rqWk5AFXyd3O3HDh0e_r-15">
          <mxGeometry relative="1" as="geometry" />
        </mxCell>
        <mxCell id="rqWk5AFXyd3O3HDh0e_r-28" style="edgeStyle=none;rounded=0;orthogonalLoop=1;jettySize=auto;html=1;entryX=0.245;entryY=0.088;entryDx=0;entryDy=0;entryPerimeter=0;" edge="1" parent="1" source="rqWk5AFXyd3O3HDh0e_r-26" target="rqWk5AFXyd3O3HDh0e_r-21">
          <mxGeometry relative="1" as="geometry" />
        </mxCell>
        <mxCell id="rqWk5AFXyd3O3HDh0e_r-86" style="edgeStyle=none;rounded=0;orthogonalLoop=1;jettySize=auto;html=1;exitX=0.5;exitY=1;exitDx=0;exitDy=0;entryX=0.5;entryY=0;entryDx=0;entryDy=0;" edge="1" parent="1" source="rqWk5AFXyd3O3HDh0e_r-29" target="rqWk5AFXyd3O3HDh0e_r-85">
          <mxGeometry relative="1" as="geometry" />
        </mxCell>
        <mxCell id="rqWk5AFXyd3O3HDh0e_r-29" value="flash attention" style="rounded=1;whiteSpace=wrap;html=1;" vertex="1" parent="1">
          <mxGeometry x="515" y="550" width="110" height="40" as="geometry" />
        </mxCell>
        <mxCell id="rqWk5AFXyd3O3HDh0e_r-8" value="&lt;div&gt;hidden&lt;/div&gt;" style="text;html=1;align=center;verticalAlign=middle;resizable=0;points=[];autosize=1;strokeColor=none;fillColor=none;" vertex="1" parent="1">
          <mxGeometry x="280" y="297.25" width="60" height="30" as="geometry" />
        </mxCell>
        <mxCell id="rqWk5AFXyd3O3HDh0e_r-9" value="num_heads * head_dim" style="text;html=1;align=center;verticalAlign=middle;resizable=0;points=[];autosize=1;strokeColor=none;fillColor=none;" vertex="1" parent="1">
          <mxGeometry x="295" y="263" width="150" height="30" as="geometry" />
        </mxCell>
        <mxCell id="rqWk5AFXyd3O3HDh0e_r-10" value="" style="rounded=0;whiteSpace=wrap;html=1;fillColor=#dae8fc;strokeColor=#6c8ebf;" vertex="1" parent="1">
          <mxGeometry x="340" y="293" width="60" height="43" as="geometry" />
        </mxCell>
        <mxCell id="rqWk5AFXyd3O3HDh0e_r-60" style="edgeStyle=orthogonalEdgeStyle;rounded=0;orthogonalLoop=1;jettySize=auto;html=1;entryX=0.5;entryY=0;entryDx=0;entryDy=0;" edge="1" parent="1" source="rqWk5AFXyd3O3HDh0e_r-12" target="rqWk5AFXyd3O3HDh0e_r-56">
          <mxGeometry relative="1" as="geometry" />
        </mxCell>
        <mxCell id="rqWk5AFXyd3O3HDh0e_r-12" value="q_proj" style="text;html=1;align=center;verticalAlign=middle;resizable=0;points=[];autosize=1;strokeColor=none;fillColor=none;" vertex="1" parent="1">
          <mxGeometry x="340" y="334" width="60" height="30" as="geometry" />
        </mxCell>
        <mxCell id="rqWk5AFXyd3O3HDh0e_r-63" style="rounded=0;orthogonalLoop=1;jettySize=auto;html=1;entryX=0;entryY=0.25;entryDx=0;entryDy=0;" edge="1" parent="1" source="rqWk5AFXyd3O3HDh0e_r-56" target="rqWk5AFXyd3O3HDh0e_r-29">
          <mxGeometry relative="1" as="geometry" />
        </mxCell>
        <mxCell id="rqWk5AFXyd3O3HDh0e_r-56" value="&lt;div&gt;nccl&lt;/div&gt;&lt;div&gt;all2all&lt;br&gt;&lt;/div&gt;" style="rounded=1;whiteSpace=wrap;html=1;" vertex="1" parent="1">
          <mxGeometry x="340" y="430" width="60" height="40" as="geometry" />
        </mxCell>
        <mxCell id="rqWk5AFXyd3O3HDh0e_r-64" style="edgeStyle=none;rounded=0;orthogonalLoop=1;jettySize=auto;html=1;entryX=0.5;entryY=0;entryDx=0;entryDy=0;" edge="1" parent="1" source="rqWk5AFXyd3O3HDh0e_r-57" target="rqWk5AFXyd3O3HDh0e_r-29">
          <mxGeometry relative="1" as="geometry" />
        </mxCell>
        <mxCell id="rqWk5AFXyd3O3HDh0e_r-57" value="&lt;div&gt;nccl&lt;/div&gt;&lt;div&gt;all2all&lt;br&gt;&lt;/div&gt;" style="rounded=1;whiteSpace=wrap;html=1;" vertex="1" parent="1">
          <mxGeometry x="540" y="430" width="60" height="40" as="geometry" />
        </mxCell>
        <mxCell id="rqWk5AFXyd3O3HDh0e_r-65" style="edgeStyle=none;rounded=0;orthogonalLoop=1;jettySize=auto;html=1;entryX=1;entryY=0;entryDx=0;entryDy=0;" edge="1" parent="1" source="rqWk5AFXyd3O3HDh0e_r-58" target="rqWk5AFXyd3O3HDh0e_r-29">
          <mxGeometry relative="1" as="geometry" />
        </mxCell>
        <mxCell id="rqWk5AFXyd3O3HDh0e_r-58" value="&lt;div&gt;nccl&lt;/div&gt;&lt;div&gt;all2all&lt;br&gt;&lt;/div&gt;" style="rounded=1;whiteSpace=wrap;html=1;" vertex="1" parent="1">
          <mxGeometry x="730" y="430" width="60" height="40" as="geometry" />
        </mxCell>
        <mxCell id="rqWk5AFXyd3O3HDh0e_r-61" style="edgeStyle=orthogonalEdgeStyle;rounded=0;orthogonalLoop=1;jettySize=auto;html=1;entryX=0.5;entryY=0;entryDx=0;entryDy=0;" edge="1" parent="1" source="rqWk5AFXyd3O3HDh0e_r-18" target="rqWk5AFXyd3O3HDh0e_r-57">
          <mxGeometry relative="1" as="geometry" />
        </mxCell>
        <mxCell id="rqWk5AFXyd3O3HDh0e_r-62" style="edgeStyle=orthogonalEdgeStyle;rounded=0;orthogonalLoop=1;jettySize=auto;html=1;entryX=0.5;entryY=0;entryDx=0;entryDy=0;" edge="1" parent="1" source="rqWk5AFXyd3O3HDh0e_r-24" target="rqWk5AFXyd3O3HDh0e_r-58">
          <mxGeometry relative="1" as="geometry" />
        </mxCell>
        <mxCell id="rqWk5AFXyd3O3HDh0e_r-76" value="" style="group" vertex="1" connectable="0" parent="1">
          <mxGeometry x="205" y="514" width="240" height="36" as="geometry" />
        </mxCell>
        <mxCell id="rqWk5AFXyd3O3HDh0e_r-74" value="[num_tokens, num_heads&lt;span style=&quot;color: rgb(255, 51, 51);&quot;&gt;/N&lt;/span&gt;* head_dim]" style="text;html=1;align=center;verticalAlign=middle;resizable=0;points=[];autosize=1;strokeColor=none;fillColor=none;" vertex="1" parent="rqWk5AFXyd3O3HDh0e_r-76">
          <mxGeometry y="6" width="240" height="30" as="geometry" />
        </mxCell>
        <mxCell id="rqWk5AFXyd3O3HDh0e_r-75" value="" style="rounded=0;whiteSpace=wrap;html=1;fillColor=none;dashed=1;strokeColor=#FF3333;" vertex="1" parent="rqWk5AFXyd3O3HDh0e_r-76">
          <mxGeometry width="240" height="36" as="geometry" />
        </mxCell>
        <mxCell id="rqWk5AFXyd3O3HDh0e_r-77" value="" style="group" vertex="1" connectable="0" parent="1">
          <mxGeometry x="430" y="470" width="240" height="36" as="geometry" />
        </mxCell>
        <mxCell id="rqWk5AFXyd3O3HDh0e_r-78" value="[num_tokens, num_heads&lt;span style=&quot;color: rgb(255, 51, 51);&quot;&gt;/N&lt;/span&gt;* head_dim]" style="text;html=1;align=center;verticalAlign=middle;resizable=0;points=[];autosize=1;strokeColor=none;fillColor=none;" vertex="1" parent="rqWk5AFXyd3O3HDh0e_r-77">
          <mxGeometry y="6" width="240" height="30" as="geometry" />
        </mxCell>
        <mxCell id="rqWk5AFXyd3O3HDh0e_r-79" value="" style="rounded=0;whiteSpace=wrap;html=1;fillColor=none;dashed=1;strokeColor=#FF3333;" vertex="1" parent="rqWk5AFXyd3O3HDh0e_r-77">
          <mxGeometry width="240" height="36" as="geometry" />
        </mxCell>
        <mxCell id="rqWk5AFXyd3O3HDh0e_r-80" value="" style="group" vertex="1" connectable="0" parent="1">
          <mxGeometry x="690" y="500" width="240" height="36" as="geometry" />
        </mxCell>
        <mxCell id="rqWk5AFXyd3O3HDh0e_r-81" value="[num_tokens, num_heads&lt;span style=&quot;color: rgb(255, 51, 51);&quot;&gt;/N&lt;/span&gt;* head_dim]" style="text;html=1;align=center;verticalAlign=middle;resizable=0;points=[];autosize=1;strokeColor=none;fillColor=none;" vertex="1" parent="rqWk5AFXyd3O3HDh0e_r-80">
          <mxGeometry y="6" width="240" height="30" as="geometry" />
        </mxCell>
        <mxCell id="rqWk5AFXyd3O3HDh0e_r-82" value="" style="rounded=0;whiteSpace=wrap;html=1;fillColor=none;dashed=1;strokeColor=#FF3333;" vertex="1" parent="rqWk5AFXyd3O3HDh0e_r-80">
          <mxGeometry width="240" height="36" as="geometry" />
        </mxCell>
        <mxCell id="rqWk5AFXyd3O3HDh0e_r-31" value="[num_tokens&lt;span style=&quot;color: rgb(255, 51, 51);&quot;&gt;/N&lt;/span&gt;, num_heads* head_dim]" style="text;html=1;align=center;verticalAlign=middle;resizable=0;points=[];autosize=1;strokeColor=none;fillColor=none;" vertex="1" parent="1">
          <mxGeometry x="140" y="377.5" width="240" height="30" as="geometry" />
        </mxCell>
        <mxCell id="rqWk5AFXyd3O3HDh0e_r-84" value="" style="rounded=0;whiteSpace=wrap;html=1;fillColor=none;dashed=1;strokeColor=#FF3333;" vertex="1" parent="1">
          <mxGeometry x="580" y="170" width="140" height="50" as="geometry" />
        </mxCell>
        <mxCell id="rqWk5AFXyd3O3HDh0e_r-68" value="[num_tokens&lt;span style=&quot;color: rgb(255, 51, 51);&quot;&gt;/N&lt;/span&gt;, num_heads* head_dim]" style="text;html=1;align=center;verticalAlign=middle;resizable=0;points=[];autosize=1;strokeColor=none;fillColor=none;" vertex="1" parent="1">
          <mxGeometry x="430" y="378" width="240" height="30" as="geometry" />
        </mxCell>
        <mxCell id="rqWk5AFXyd3O3HDh0e_r-71" value="[num_tokens&lt;span style=&quot;color: rgb(255, 51, 51);&quot;&gt;/N&lt;/span&gt;, num_heads* head_dim]" style="text;html=1;align=center;verticalAlign=middle;resizable=0;points=[];autosize=1;strokeColor=none;fillColor=none;" vertex="1" parent="1">
          <mxGeometry x="750" y="378" width="240" height="30" as="geometry" />
        </mxCell>
        <mxCell id="rqWk5AFXyd3O3HDh0e_r-85" value="&lt;div&gt;nccl&lt;/div&gt;&lt;div&gt;all2all&lt;br&gt;&lt;/div&gt;" style="rounded=1;whiteSpace=wrap;html=1;" vertex="1" parent="1">
          <mxGeometry x="540" y="650" width="60" height="40" as="geometry" />
        </mxCell>
        <mxCell id="rqWk5AFXyd3O3HDh0e_r-87" style="edgeStyle=none;rounded=0;orthogonalLoop=1;jettySize=auto;html=1;entryX=0.323;entryY=-0.063;entryDx=0;entryDy=0;entryPerimeter=0;" edge="1" parent="1" source="rqWk5AFXyd3O3HDh0e_r-85" target="rqWk5AFXyd3O3HDh0e_r-41">
          <mxGeometry relative="1" as="geometry" />
        </mxCell>
        <mxCell id="rqWk5AFXyd3O3HDh0e_r-89" value="[num_tokens, num_heads&lt;span style=&quot;color: rgb(255, 51, 51);&quot;&gt;/N&lt;/span&gt;* head_dim]" style="text;html=1;align=center;verticalAlign=middle;resizable=0;points=[];autosize=1;strokeColor=none;fillColor=none;" vertex="1" parent="1">
          <mxGeometry x="580" y="610" width="240" height="30" as="geometry" />
        </mxCell>
        <mxCell id="rqWk5AFXyd3O3HDh0e_r-40" value="num_heads * head_dim" style="text;whiteSpace=wrap;html=1;rotation=270;" vertex="1" parent="1">
          <mxGeometry x="455" y="755" width="170" height="40" as="geometry" />
        </mxCell>
        <mxCell id="rqWk5AFXyd3O3HDh0e_r-37" value="" style="rounded=0;whiteSpace=wrap;html=1;fillColor=#f8cecc;strokeColor=#b85450;" vertex="1" parent="1">
          <mxGeometry x="555" y="770" width="50" height="55" as="geometry" />
        </mxCell>
        <mxCell id="rqWk5AFXyd3O3HDh0e_r-92" style="edgeStyle=none;rounded=0;orthogonalLoop=1;jettySize=auto;html=1;" edge="1" parent="1" source="rqWk5AFXyd3O3HDh0e_r-49">
          <mxGeometry relative="1" as="geometry">
            <mxPoint x="575" y="940" as="targetPoint" />
          </mxGeometry>
        </mxCell>
        <mxCell id="rqWk5AFXyd3O3HDh0e_r-39" value="v_proj" style="text;html=1;align=center;verticalAlign=middle;resizable=0;points=[];autosize=1;strokeColor=none;fillColor=none;" vertex="1" parent="1">
          <mxGeometry x="545" y="828" width="60" height="30" as="geometry" />
        </mxCell>
        <mxCell id="rqWk5AFXyd3O3HDh0e_r-41" value="&lt;div&gt;hidden&lt;/div&gt;" style="text;html=1;align=center;verticalAlign=middle;resizable=0;points=[];autosize=1;strokeColor=none;fillColor=none;" vertex="1" parent="1">
          <mxGeometry x="550" y="740" width="60" height="30" as="geometry" />
        </mxCell>
        <mxCell id="rqWk5AFXyd3O3HDh0e_r-48" value="&lt;div&gt;[num_tokens&lt;span style=&quot;color: rgb(255, 51, 51);&quot;&gt;/N&lt;/span&gt;, hidden]&lt;/div&gt;" style="text;html=1;align=center;verticalAlign=middle;resizable=0;points=[];autosize=1;strokeColor=none;fillColor=none;" vertex="1" parent="1">
          <mxGeometry x="580" y="858" width="150" height="30" as="geometry" />
        </mxCell>
        <mxCell id="rqWk5AFXyd3O3HDh0e_r-54" value="" style="rounded=0;whiteSpace=wrap;html=1;fillColor=none;dashed=1;strokeColor=#FF3333;" vertex="1" parent="1">
          <mxGeometry x="585" y="690" width="240" height="30" as="geometry" />
        </mxCell>
        <mxCell id="rqWk5AFXyd3O3HDh0e_r-46" value="[num_tokens&lt;span style=&quot;color: rgb(255, 51, 51);&quot;&gt;/N&lt;/span&gt;, num_heads * head_dim]" style="text;html=1;align=center;verticalAlign=middle;resizable=0;points=[];autosize=1;strokeColor=none;fillColor=none;" vertex="1" parent="1">
          <mxGeometry x="585" y="690" width="240" height="30" as="geometry" />
        </mxCell>
        <mxCell id="rqWk5AFXyd3O3HDh0e_r-93" value="" style="edgeStyle=none;rounded=0;orthogonalLoop=1;jettySize=auto;html=1;" edge="1" parent="1" source="rqWk5AFXyd3O3HDh0e_r-39" target="rqWk5AFXyd3O3HDh0e_r-49">
          <mxGeometry relative="1" as="geometry">
            <mxPoint x="575" y="940" as="targetPoint" />
            <mxPoint x="575" y="858" as="sourcePoint" />
          </mxGeometry>
        </mxCell>
        <mxCell id="rqWk5AFXyd3O3HDh0e_r-49" value="……" style="rounded=1;whiteSpace=wrap;html=1;" vertex="1" parent="1">
          <mxGeometry x="550" y="910" width="50" height="30" as="geometry" />
        </mxCell>
      </root>
    </mxGraphModel>
  </diagram>
</mxfile>
